<?xml version="1.0" encoding="utf-8"?>
<!-- Generator: Adobe Illustrator 16.0.0, SVG Export Plug-In . SVG Version: 6.00 Build 0)  -->
<!DOCTYPE svg PUBLIC "-//W3C//DTD SVG 1.0//EN" "http://www.w3.org/TR/2001/REC-SVG-20010904/DTD/svg10.dtd">
<svg version="1.0" id="Layer_1" xmlns="http://www.w3.org/2000/svg" xmlns:xlink="http://www.w3.org/1999/xlink" x="0px" y="0px"
	 width="32px" height="32px" viewBox="0 0 32 32" enable-background="new 0 0 32 32" xml:space="preserve">
<g>
	<path fill="#DAE2E5" d="M21,27.038c0-0.553-0.447-1-1-1c0.553,0,1-0.447,1-1s-0.447-1-1-1h-8c-0.553,0-1,0.447-1,1s0.447,1,1,1
		c-0.553,0-1,0.447-1,1s0.447,1,1,1c-0.553,0-1,0.447-1,1s0.447,1,1,1h1.184c0.414,1.162,1.513,2,2.816,2s2.402-0.838,2.816-2H20
		c0.553,0,1-0.447,1-1s-0.447-1-1-1C20.553,28.038,21,27.591,21,27.038z"/>
	<path fill="#EACA44" d="M16,0.038c-6.075,0-11,4.925-11,11c0,4,3,8,6,12c2,0,8,0,10,0c3-4,6-8,6-12C27,4.963,22.075,0.038,16,0.038
		z"/>
	<g opacity="0.1">
		<path d="M12,26.038h8c0.553,0,1-0.447,1-1H11C11,25.591,11.447,26.038,12,26.038z"/>
		<path d="M12,28.038h8c0.553,0,1-0.447,1-1H11C11,27.591,11.447,28.038,12,28.038z"/>
		<path d="M12,30.038h8c0.553,0,1-0.447,1-1H11C11,29.591,11.447,30.038,12,30.038z"/>
	</g>
	<path opacity="0.1" d="M16,21.038c-3.406,0-6.494-1.321-8.812-3.465c1.083,1.821,2.446,3.643,3.812,5.465c2.484,0,7.516,0,10,0
		c1.366-1.822,2.729-3.644,3.812-5.465C22.494,19.717,19.406,21.038,16,21.038z"/>
	<path opacity="0.2" d="M16.977,5.155C16.981,5.115,17,5.08,17,5.038v-1c0-0.553-0.447-1-1-1s-1,0.447-1,1v1
		c0,0.042,0.019,0.077,0.023,0.117C13.289,5.538,12,6.901,12,8.538c0,1.933,1.791,3.5,4,3.5c1.104,0,2,0.672,2,1.5s-0.896,1.5-2,1.5
		s-2-0.672-2-1.5c0-0.553-0.447-1-1-1s-1,0.447-1,1c0,1.629,1.278,2.986,3,3.376v1.124c0,0.553,0.447,1,1,1s1-0.447,1-1v-1.124
		c1.722-0.39,3-1.747,3-3.376c0-1.933-1.791-3.5-4-3.5c-1.104,0-2-0.672-2-1.5s0.896-1.5,2-1.5s2,0.672,2,1.5c0,0.553,0.447,1,1,1
		s1-0.447,1-1C20,6.901,18.711,5.538,16.977,5.155z"/>
	<g>
		<path fill="#EACA44" d="M3,10.038H1c-0.553,0-1,0.447-1,1s0.447,1,1,1h2c0.553,0,1-0.447,1-1S3.553,10.038,3,10.038z"/>
		<path fill="#EACA44" d="M5.671,18.993l-1.486,1.338c-0.412,0.371-0.444,1.002-0.074,1.413c0.369,0.411,1.001,0.444,1.412,0.073
			l1.486-1.338c0.41-0.369,0.443-1.002,0.074-1.412C6.713,18.657,6.081,18.624,5.671,18.993z"/>
		<path fill="#EACA44" d="M31,10.038h-2c-0.553,0-1,0.447-1,1s0.447,1,1,1h2c0.553,0,1-0.447,1-1S31.553,10.038,31,10.038z"/>
		<path fill="#EACA44" d="M26.33,18.994c-0.411-0.37-1.043-0.337-1.412,0.074c-0.37,0.41-0.338,1.042,0.074,1.412l1.485,1.338
			c0.411,0.37,1.042,0.336,1.413-0.074c0.369-0.41,0.336-1.042-0.074-1.412L26.33,18.994z"/>
		<path fill="#EACA44" d="M26.331,3.083l1.485-1.339c0.411-0.37,0.444-1.001,0.073-1.412c-0.369-0.411-1-0.444-1.412-0.074
			l-1.485,1.339c-0.411,0.369-0.444,1.001-0.074,1.412C25.288,3.419,25.919,3.452,26.331,3.083z"/>
		<path fill="#EACA44" d="M5.67,3.082C6.08,3.453,6.713,3.42,7.082,3.009c0.37-0.411,0.337-1.042-0.074-1.413L5.521,0.258
			c-0.41-0.369-1.042-0.336-1.412,0.074C3.74,0.742,3.772,1.375,4.184,1.744L5.67,3.082z"/>
	</g>
</g>
</svg>
