<?xml version="1.0" encoding="utf-8"?>
<!-- Generator: Adobe Illustrator 16.0.0, SVG Export Plug-In . SVG Version: 6.00 Build 0)  -->
<!DOCTYPE svg PUBLIC "-//W3C//DTD SVG 1.0//EN" "http://www.w3.org/TR/2001/REC-SVG-20010904/DTD/svg10.dtd">
<svg version="1.0" id="Layer_1" xmlns="http://www.w3.org/2000/svg" xmlns:xlink="http://www.w3.org/1999/xlink" x="0px" y="0px"
	 width="32px" height="32px" viewBox="0 0 32 32" enable-background="new 0 0 32 32" xml:space="preserve">
<g>
	<path fill="#434854" d="M32,25.994c0,1.104-0.896,2-2,2H2c-1.104,0-2-0.896-2-2v-20c0-1.104,0.896-2,2-2h28c1.104,0,2,0.896,2,2
		V25.994z"/>
	<path opacity="0.3" d="M30,26.994H2c-1.104,0-2-0.896-2-2v1c0,1.104,0.896,2,2,2h28c1.104,0,2-0.896,2-2v-1
		C32,26.099,31.104,26.994,30,26.994z"/>
	<rect y="7.994" fill="#DAE2E5" width="32" height="6"/>
	<g opacity="0.1">
		<rect x="4" y="20.994" fill="#FFFFFF" width="13" height="3"/>
		<rect x="19" y="20.994" fill="#FFFFFF" width="5" height="3"/>
	</g>
</g>
</svg>
